<svg
  width="20"
  height="20"
  viewBox="0 0 16 13"
  fill="currentColor"
  xmlns="http://www.w3.org/2000/svg"
><path d="M15.2015 5.60254H14.4033V6.4007H15.2015V5.60254Z" /><path
    d="M15.2015 2.3999H14.4033V3.20332H15.2015V2.3999Z"
  /><path d="M14.4045 6.40088H13.6011V7.20429H14.4045V6.40088Z" /><path
    d="M14.4045 1.60107H13.6011V2.39924H14.4045V1.60107Z"
  /><path d="M13.6004 7.20508H12.8022V8.00324H13.6004V7.20508Z" /><path
    d="M13.6004 0.802734H12.8022V1.6009H13.6004V0.802734Z"
  /><path d="M12.8015 8.00195H11.998V8.80012H12.8015V8.00195Z" /><path
    d="M11.9993 8.80078H11.2012V9.60419H11.9993V8.80078Z"
  /><path d="M11.9993 5.60254H11.2012V6.4007H11.9993V5.60254Z" /><path
    d="M11.9993 2.3999H11.2012V3.20332H11.9993V2.3999Z"
  /><path d="M11.2005 9.60352H10.4023V10.4017H11.2005V9.60352Z" /><path
    d="M11.2005 6.40039H10.4023V8.00197H11.2005V6.40039Z"
  /><path d="M11.2005 1.60107H10.4023V2.39924H11.2005V1.60107Z" /><path
    d="M10.403 8.00195H9.59961V9.60353H10.403V8.00195Z"
  /><path
    d="M9.59894 9.60352H8.80078V12.0033H9.59894V11.2051H10.4024V10.4017H9.59894V9.60352Z"
  /><path d="M8.80128 12.0034H7.19971V12.8016H8.80128V12.0034Z" /><path
    d="M7.20021 9.60352H6.40205V10.4017H5.59863V11.2051H6.40205V12.0033H7.20021V9.60352Z"
  /><path d="M6.40205 8.00195H5.59863V9.60353H6.40205V8.00195Z" /><path
    d="M5.59797 9.60352H4.7998V10.4017H5.59797V9.60352Z"
  /><path d="M5.59797 6.40088H4.7998V8.00245H5.59797V6.40088Z" /><path
    d="M5.59797 1.60107H4.7998V2.39924H5.59797V1.60107Z"
  /><path d="M4.79914 8.80078H4.00098V9.60419H4.79914V8.80078Z" /><path
    d="M4.79914 5.60254H4.00098V6.4007H4.79914V5.60254Z"
  /><path d="M4.79914 2.3999H4.00098V3.20332H4.79914V2.3999Z" /><path
    d="M5.597 0.803413V1.60158H6.40042V0.803413H9.59832V1.60158H10.4017V0.803413H12.8015V0H3.19727V0.803413H5.597Z"
  /><path d="M4.00068 8.00195H3.19727V8.80012H4.00068V8.00195Z" /><path
    d="M3.19806 7.20508H2.3999V8.00324H3.19806V7.20508Z"
  /><path d="M3.19806 0.802734H2.3999V1.6009H3.19806V0.802734Z" /><path
    d="M2.39912 6.40088H1.5957V7.20429H2.39912V6.40088Z"
  /><path d="M2.39912 1.60107H1.5957V2.39924H2.39912V1.60107Z" /><path
    d="M1.59699 5.60254H0.798828V6.4007H1.59699V5.60254Z"
  /><path
    d="M0.798162 4.79896H3.1979V5.60237H4.00131V4.79896H11.9987V5.60237H12.8021V4.79896H15.2018V5.60237H16V3.20264H15.2018V4.0008H12.8021V3.20264H11.9987V4.0008H4.00131V3.20264H3.1979V4.0008H0.798162V3.20264H0V5.60237H0.798162V4.79896Z"
  /><path d="M1.59699 2.3999H0.798828V3.20332H1.59699V2.3999Z" /></svg>
