<svg
  width="57"
  height="43"
  viewBox="0 0 57 43"
  fill="none"
  xmlns="http://www.w3.org/2000/svg"
>
<path
    d="M36.6756 0C36.124 0.984839 35.6324 2.00192 35.2035 3.04572C30.9893 2.38134 26.6966 2.38134 22.4824 3.04572C22.0535 2.00192 21.5619 0.984839 21.0103 0C17.0406 0.676152 13.1815 1.88706 9.53902 3.59948C3.02553 12.97 0.0716011 24.3462 1.2064 35.6903C5.45114 38.8713 10.2152 41.2974 15.2885 42.8616C16.4438 41.3404 17.4747 39.7293 18.3716 38.0438C16.7164 37.4354 15.1255 36.6656 13.622 35.7457C14.0344 35.4721 14.4244 35.1666 14.7886 34.8319C19.1728 36.9371 23.9766 38.0303 28.8429 38.0303C33.7093 38.0303 38.5131 36.9371 42.8973 34.8319C43.2861 35.1642 43.675 35.4688 44.0639 35.7457C42.5522 36.6584 40.9629 37.4367 39.3143 38.0715C40.1739 39.7952 41.1774 41.4438 42.314 43C47.381 41.4412 52.1368 39.0145 56.3684 35.8287C57.5304 24.4826 54.5741 13.0971 48.0357 3.73793C44.4342 1.99006 40.6132 0.732828 36.6756 0ZM19.6215 29.2112C18.2316 29.1117 16.9343 28.4794 16.0021 27.4468C15.0699 26.4143 14.5752 25.0619 14.6219 23.6735C14.5682 22.2833 15.0605 20.9271 15.9941 19.893C16.9277 18.8589 18.229 18.2285 19.6215 18.1359C21.014 18.2285 22.3153 18.8589 23.2489 19.893C24.1825 20.9271 24.6748 22.2833 24.6211 23.6735C24.6748 25.0637 24.1825 26.42 23.2489 27.4541C22.3153 28.4882 21.014 29.1185 19.6215 29.2112ZM38.0644 29.2112C36.6744 29.1117 35.3772 28.4794 34.445 27.4468C33.5128 26.4143 33.0181 25.0619 33.0648 23.6735C33.0111 22.2833 33.5033 20.9271 34.4369 19.893C35.3705 18.8589 36.6719 18.2285 38.0644 18.1359C39.4594 18.2216 40.765 18.85 41.7 19.8856C42.6351 20.9213 43.1248 22.2815 43.0639 23.6735C43.1248 25.0656 42.6351 26.4258 41.7 27.4614C40.765 28.4971 39.4594 29.1254 38.0644 29.2112Z"
    fill="currentColor"
  />
</svg>
