<?xml version="1.0" encoding="utf-8" ?>
<svg
  xmlns="http://www.w3.org/2000/svg"
  fill="none"
  height="24"
  viewBox="0 0 25 24"
  width="25"
>
<path
    d="M21.6737 14.5549C20.3566 19.3883 15.4287 22.2894 10.6669 21.0348C5.90509 19.7802 3.11258 14.8448 4.42967 10.0114C5.74675 5.17802 10.6747 2.27685 15.4365 3.53148C20.1983 4.78612 22.9908 9.72145 21.6737 14.5549Z"
    fill="#A56402"
  />
<path
    clip-rule="evenodd"
    d="M22.2309 14.7016C20.836 19.8206 15.6043 22.9219 10.5188 21.582C5.43327 20.242 2.47946 14.984 3.87437 9.86504C5.26927 4.74605 10.5009 1.64476 15.5865 2.98469C20.672 4.32462 23.6258 9.58261 22.2309 14.7016ZM10.6679 21.035C15.4297 22.2896 20.3576 19.3885 21.6747 14.555C22.9917 9.72164 20.1992 4.7863 15.4374 3.53167C10.6756 2.27703 5.74771 5.1782 4.43063 10.0116C3.11354 14.845 5.90605 19.7803 10.6679 21.035Z"
    fill="#5B3303"
    fill-rule="evenodd"
  />
<path
    d="M21.0975 13.9885C19.7805 18.8219 14.8525 21.723 10.0907 20.4684C5.32892 19.2138 2.53641 14.2784 3.85349 9.44502C5.17058 4.61161 10.0985 1.71044 14.8603 2.96508C19.6221 4.21971 22.4146 9.15505 21.0975 13.9885Z"
    fill="#FFB423"
  />
<path
    clip-rule="evenodd"
    d="M21.6548 14.1352C20.2598 19.2542 15.0282 22.3555 9.94264 21.0156C4.8571 19.6756 1.90329 14.4176 3.29819 9.29864C4.6931 4.17964 9.92477 1.07835 15.0103 2.41828C20.0958 3.75821 23.0497 9.0162 21.6548 14.1352ZM10.0917 20.4686C14.8535 21.7232 19.7814 18.822 21.0985 13.9886C22.4156 9.15523 19.6231 4.2199 14.8613 2.96526C10.0995 1.71062 5.17154 4.61179 3.85445 9.4452C2.53737 14.2786 5.32988 19.2139 10.0917 20.4686Z"
    fill="#5B3303"
    fill-rule="evenodd"
  />
<path
    d="M19.4298 13.5482C18.3597 17.4754 14.3791 19.8387 10.5389 18.8269C6.69873 17.8151 4.45317 13.8113 5.5233 9.88416C6.59343 5.95702 10.574 3.59367 14.4142 4.60547C18.2543 5.61727 20.4999 9.62108 19.4298 13.5482Z"
    fill="#FFCF23"
  />
<path
    clip-rule="evenodd"
    d="M19.985 13.695C18.8382 17.9038 14.5566 20.4722 10.3889 19.3741C6.22111 18.276 3.81916 13.9466 4.96605 9.73778C6.11293 5.52897 10.3945 2.96056 14.5622 4.05867C18.73 5.15678 21.1319 9.48615 19.985 13.695ZM10.5379 18.8271C14.3781 19.8389 18.3587 17.4755 19.4288 13.5484C20.4989 9.62126 18.2534 5.61745 14.4132 4.60565C10.573 3.59385 6.59243 5.9572 5.5223 9.88434C4.45218 13.8115 6.69774 17.8153 10.5379 18.8271Z"
    fill="#DF8D12"
    fill-rule="evenodd"
  />
<path
    clip-rule="evenodd"
    d="M17.8212 6.67413C17.0301 5.98086 16.0733 5.45693 14.9894 5.17136C11.1492 4.15955 7.16864 6.5229 6.09851 10.45C5.40796 12.9842 6.09809 15.5503 7.70642 17.3238C5.6946 15.5607 4.75453 12.7025 5.52262 9.88377C6.59275 5.95663 10.5733 3.59328 14.4135 4.60508C15.7756 4.96397 16.9371 5.69931 17.8212 6.67413Z"
    fill="#FFDD65"
    fill-rule="evenodd"
  />
<path
    d="M17.5368 14.87C17.6305 15.072 17.5399 15.3105 17.3345 15.4027C17.129 15.4948 16.8865 15.4057 16.7927 15.2037C16.699 15.0017 16.7896 14.7632 16.9951 14.671C17.2005 14.5789 17.4431 14.668 17.5368 14.87Z"
    fill="#EEBE14"
  />
<path
    d="M19.1833 13.2469C19.277 13.449 19.1864 13.6875 18.9809 13.7796C18.7755 13.8718 18.5329 13.7827 18.4392 13.5807C18.3455 13.3786 18.4361 13.1401 18.6416 13.048C18.847 12.9558 19.0896 13.0449 19.1833 13.2469Z"
    fill="#EEBE14"
  />
<path
    d="M17.1891 13.0829C17.2828 13.2849 17.1923 13.5234 16.9868 13.6156C16.7813 13.7077 16.5388 13.6186 16.4451 13.4166C16.3514 13.2146 16.442 12.9761 16.6474 12.8839C16.8529 12.7918 17.0954 12.8808 17.1891 13.0829Z"
    fill="#EEBE14"
  />
<path
    d="M18.027 13.6786C18.0922 13.8193 18.0292 13.9854 17.8861 14.0496C17.743 14.1138 17.5741 14.0517 17.5088 13.911C17.4435 13.7703 17.5066 13.6042 17.6497 13.54C17.7928 13.4759 17.9617 13.5379 18.027 13.6786Z"
    fill="#EEBE14"
  />
<path
    d="M17.9157 12.4501C17.9809 12.5908 17.9178 12.7569 17.7747 12.8211C17.6316 12.8852 17.4627 12.8232 17.3975 12.6825C17.3322 12.5418 17.3953 12.3757 17.5384 12.3115C17.6815 12.2474 17.8504 12.3094 17.9157 12.4501Z"
    fill="#EEBE14"
  />
<path
    d="M19.2164 12.1747C19.2817 12.3154 19.2186 12.4815 19.0755 12.5457C18.9324 12.6098 18.7635 12.5478 18.6983 12.4071C18.633 12.2664 18.6961 12.1003 18.8392 12.0361C18.9823 11.972 19.1512 12.034 19.2164 12.1747Z"
    fill="#EEBE14"
  />
<path
    d="M19.3844 10.4267C19.4497 10.5674 19.3866 10.7334 19.2435 10.7976C19.1004 10.8618 18.9315 10.7998 18.8662 10.6591C18.801 10.5184 18.864 10.3523 19.0071 10.2881C19.1502 10.2239 19.3191 10.2859 19.3844 10.4267Z"
    fill="#EEBE14"
  />
<path
    d="M18.5035 11.5712C18.5688 11.7119 18.5057 11.878 18.3626 11.9422C18.2195 12.0063 18.0506 11.9443 17.9854 11.8036C17.9201 11.6629 17.9832 11.4968 18.1263 11.4326C18.2694 11.3684 18.4383 11.4305 18.5035 11.5712Z"
    fill="#EEBE14"
  />
<path
    d="M18.736 14.4267C18.8012 14.5674 18.7381 14.7334 18.5951 14.7976C18.452 14.8618 18.2831 14.7998 18.2178 14.6591C18.1525 14.5184 18.2156 14.3523 18.3587 14.2881C18.5018 14.2239 18.6707 14.2859 18.736 14.4267Z"
    fill="#EEBE14"
  />
<path
    d="M17.4397 16.0773C17.5 16.2073 17.4417 16.3608 17.3094 16.4202C17.1772 16.4795 17.0211 16.4221 16.9608 16.2921C16.9005 16.1621 16.9588 16.0086 17.091 15.9492C17.2233 15.8899 17.3794 15.9473 17.4397 16.0773Z"
    fill="#EEBE14"
  />
<path
    d="M18.0591 15.3759C18.096 15.4555 18.0603 15.5494 17.9794 15.5857C17.8985 15.622 17.803 15.5869 17.766 15.5073C17.7291 15.4278 17.7648 15.3339 17.8457 15.2976C17.9266 15.2613 18.0222 15.2964 18.0591 15.3759Z"
    fill="#EEBE14"
  />
<path
    d="M16.9231 14.0797C16.9733 14.1879 16.9248 14.3157 16.8147 14.3651C16.7046 14.4144 16.5747 14.3667 16.5245 14.2585C16.4743 14.1502 16.5228 14.0225 16.6329 13.9731C16.743 13.9237 16.8729 13.9715 16.9231 14.0797Z"
    fill="#EEBE14"
  />
<path
    d="M18.5872 10.6813C18.6374 10.7895 18.5888 10.9173 18.4788 10.9666C18.3687 11.016 18.2388 10.9683 18.1886 10.86C18.1384 10.7518 18.1869 10.624 18.297 10.5747C18.407 10.5253 18.537 10.573 18.5872 10.6813Z"
    fill="#EEBE14"
  />
<path
    d="M19.2454 11.4742C19.2956 11.5825 19.247 11.7102 19.137 11.7596C19.0269 11.809 18.897 11.7612 18.8468 11.653C18.7966 11.5448 18.8451 11.417 18.9552 11.3676C19.0652 11.3183 19.1952 11.366 19.2454 11.4742Z"
    fill="#EEBE14"
  />
<path
    d="M16.6418 15.6031C16.6921 15.7114 16.6435 15.8391 16.5335 15.8885C16.4234 15.9379 16.2935 15.8901 16.2432 15.7819C16.193 15.6737 16.2416 15.5459 16.3516 15.4965C16.4617 15.4472 16.5916 15.4949 16.6418 15.6031Z"
    fill="#EEBE14"
  />
<path
    d="M16.5168 16.859C16.5671 16.9672 16.5185 17.095 16.4085 17.1444C16.2984 17.1937 16.1685 17.146 16.1182 17.0378C16.068 16.9295 16.1166 16.8018 16.2266 16.7524C16.3367 16.703 16.4666 16.7508 16.5168 16.859Z"
    fill="#EEBE14"
  />
<path
    clip-rule="evenodd"
    d="M4.56841 9.00935C4.41945 8.95462 4.34381 8.7915 4.39948 8.64502C5.39336 6.02966 7.61912 4.0056 10.3834 3.25538C10.5367 3.21378 10.6953 3.30225 10.7376 3.45298C10.7799 3.60372 10.6899 3.75964 10.5366 3.80124C7.95166 4.50279 5.86868 6.39665 4.93893 8.84324C4.88326 8.98972 4.71738 9.06409 4.56841 9.00935Z"
    fill="#FFCF72"
    fill-rule="evenodd"
  />
<path
    clip-rule="evenodd"
    d="M19.6493 16.0067C19.7838 16.0902 19.8239 16.2651 19.739 16.3973C19.0654 17.4458 18.1724 18.3441 17.1232 19.0301C16.9908 19.1167 16.812 19.0813 16.724 18.9511C16.6359 18.8208 16.6719 18.6451 16.8043 18.5585C17.7861 17.9166 18.6219 17.0759 19.2521 16.0949C19.337 15.9626 19.5149 15.9232 19.6493 16.0067Z"
    fill="#FFCF72"
    fill-rule="evenodd"
  />
<path
    clip-rule="evenodd"
    d="M7.74091 5.15732C7.74086 5.15736 7.74097 5.15729 7.74091 5.15732L7.58119 4.92174C7.74091 5.15732 7.74088 5.15735 7.74091 5.15732L7.73988 5.15801L7.73404 5.16192C7.72859 5.16559 7.72008 5.17137 7.70879 5.17919C7.6862 5.19484 7.65253 5.21863 7.60999 5.25C7.52482 5.31281 7.40459 5.40567 7.26691 5.52414C6.98994 5.76244 6.65 6.09782 6.38107 6.49448C6.29286 6.62459 6.11408 6.65975 5.98177 6.57301C5.84945 6.48627 5.81369 6.31048 5.90191 6.18037C6.20886 5.72762 6.58877 5.35516 6.88769 5.09797C7.03794 4.96869 7.16967 4.86689 7.26446 4.79698C7.3119 4.762 7.35021 4.73491 7.37711 4.71627C7.39056 4.70695 7.40118 4.69973 7.40866 4.69469L7.41751 4.68877L7.42012 4.68705L7.42095 4.6865L7.42125 4.6863C7.4213 4.68627 7.42147 4.68616 7.58119 4.92174L7.42125 4.6863C7.55357 4.59956 7.73256 4.63457 7.82077 4.76468C7.90895 4.89474 7.87309 5.07054 7.74091 5.15732Z"
    fill="#FFE9AF"
    fill-rule="evenodd"
  />
<path
    clip-rule="evenodd"
    d="M8.89326 6.57334C8.8932 6.57338 8.89332 6.5733 8.89326 6.57334L8.73354 6.33776C8.89326 6.57334 8.89322 6.57336 8.89326 6.57334L8.89222 6.57403L8.88638 6.57793C8.88093 6.5816 8.87242 6.58738 8.86113 6.59521C8.83855 6.61085 8.80487 6.63464 8.76233 6.66602C8.67716 6.72883 8.55693 6.82169 8.41925 6.94015C8.14228 7.17846 7.80234 7.51384 7.53341 7.9105C7.4452 8.04061 7.26643 8.07576 7.13411 7.98902C7.00179 7.90228 6.96604 7.72649 7.05425 7.59638C7.3612 7.14363 7.74112 6.77117 8.04003 6.51399C8.19029 6.3847 8.32201 6.28291 8.4168 6.213C8.46424 6.17801 8.50255 6.15092 8.52945 6.13229C8.54291 6.12297 8.55352 6.11575 8.56101 6.11071L8.56986 6.10479L8.57246 6.10306L8.5733 6.10251L8.5736 6.10232C8.57365 6.10228 8.57382 6.10217 8.73354 6.33776L8.5736 6.10232C8.70591 6.01558 8.88491 6.05059 8.97312 6.1807C9.06129 6.31075 9.02543 6.48656 8.89326 6.57334Z"
    fill="white"
    fill-rule="evenodd"
  />
<rect
    fill="#DF8D12"
    height="2.6352"
    rx="1.00423"
    transform="matrix(0.966998 0.254783 -0.262909 0.964821 13.3984 6.80664)"
    width="2.67387"
  />
<rect
    fill="#DF8D12"
    height="2.6352"
    rx="1.00423"
    transform="matrix(0.966998 0.254783 -0.262909 0.964821 11.8242 12.5684)"
    width="2.67387"
  />
<rect
    fill="#DF8D12"
    height="2.6352"
    rx="1.00423"
    transform="matrix(0.966998 0.254783 -0.262909 0.964821 12.6094 9.6875)"
    width="2.67387"
  />
<rect
    fill="#DF8D12"
    height="2.6352"
    rx="1.00423"
    transform="matrix(0.966998 0.254783 -0.262909 0.964821 8.88281 11.8379)"
    width="2.67387"
  />
<rect
    fill="#DF8D12"
    height="2.6352"
    rx="1.00423"
    transform="matrix(0.966998 0.254783 -0.262909 0.964821 9.67969 8.91406)"
    width="2.67387"
  />
</svg>
