<svg width="73" height="43" viewBox="0 0 73 43" fill="none" xmlns="http://www.w3.org/2000/svg">
<path d="M51.0875 10.9545L55.308 15.8902C55.791 16.4525 56.2109 16.8899 56.3999 17.1606C57.6598 18.4102 58.3737 20.0971 58.3737 21.8465C58.2477 23.9082 56.9039 25.3244 55.644 26.8447L52.6833 30.281L51.1505 32.072C51.0875 32.1345 51.0665 32.2178 51.0455 32.3011C51.0245 32.3844 51.0455 32.4677 51.0875 32.5302C51.1295 32.6135 51.1715 32.676 51.2555 32.7176C51.3185 32.7593 51.4025 32.7801 51.4864 32.7801H66.8988C69.2505 32.7801 72.2112 34.7378 72.0432 37.7159C72.0432 39.0696 71.4763 40.3608 70.5104 41.3188C69.5235 42.2768 68.2006 42.8182 66.8148 42.8182H42.6674C41.0716 42.8182 36.809 42.9848 35.6122 39.382C35.3602 38.6322 35.3182 37.82 35.5072 37.0494C35.8641 35.904 36.4101 34.8211 37.124 33.8631C38.3419 32.072 39.6437 30.3018 40.9456 28.5733C42.6254 26.3032 44.3262 24.1165 46.027 21.8048C46.09 21.7215 46.111 21.6382 46.111 21.5341C46.111 21.4299 46.069 21.3466 46.027 21.2633L39.8957 14.12C39.8537 14.0784 39.8117 14.0367 39.7487 13.9951C39.6857 13.9742 39.6227 13.9534 39.5597 13.9534C39.4967 13.9534 39.4337 13.9742 39.3708 13.9951C39.3078 14.0159 39.2658 14.0575 39.2238 14.12C37.5859 16.2859 30.3837 25.8867 28.8509 27.8443C27.3181 29.7812 23.5385 29.9061 21.4387 27.8443L11.8427 18.431C11.7797 18.3685 11.6957 18.3269 11.6117 18.306C11.5278 18.2852 11.4438 18.306 11.3598 18.3269C11.2758 18.3685 11.2128 18.4102 11.1708 18.4935C11.1288 18.556 11.0868 18.6393 11.1078 18.7226V36.8204C11.1288 38.1116 10.7508 39.3611 9.99492 40.4232C9.239 41.4854 8.18912 42.2768 6.95025 42.7141C6.15234 42.9848 5.31243 43.0681 4.49352 42.9432C3.6746 42.8182 2.87669 42.5267 2.20476 42.0477C1.51184 41.5687 0.965896 40.9439 0.587937 40.215C0.209977 39.4861 0 38.6739 0 37.8617V5.31063C0.0629932 4.14437 0.482948 3.01977 1.23887 2.0826C1.99478 1.16626 3.00268 0.499824 4.15755 0.187434C5.14444 -0.062478 6.19433 -0.062478 7.18123 0.187434C8.16812 0.458172 9.07102 0.957996 9.80594 1.68691L24.5673 16.1193C24.6093 16.161 24.6723 16.2026 24.7143 16.2234C24.7773 16.2443 24.8403 16.2443 24.9033 16.2443C24.9663 16.2443 25.0293 16.2234 25.0713 16.1818C25.1343 16.161 25.1763 16.1193 25.2183 16.0568L35.6961 1.87434C36.1791 1.29121 36.788 0.83304 37.481 0.52065C38.1739 0.20826 38.9298 0.020826 39.6857 0.020826H66.9408C67.6967 0.020826 68.4316 0.187434 69.1035 0.478998C69.7755 0.791388 70.3844 1.22873 70.8884 1.77021C71.3713 2.31169 71.7493 2.95729 71.9592 3.66537C72.1692 4.37346 72.2322 5.10237 72.1272 5.83128C71.9382 7.08084 71.2873 8.22627 70.3004 9.03848C69.3135 9.85069 68.0537 10.3089 66.7518 10.288H51.4864C51.4025 10.288 51.3395 10.3089 51.2765 10.3505C51.2135 10.3922 51.1505 10.4546 51.1295 10.5171C51.0875 10.5796 51.0875 10.6629 51.0875 10.7254C51.0245 10.8087 51.0455 10.892 51.0875 10.9545Z" fill="black"/>
</svg>
