<svg
  width="18"
  height="16"
  class="w-5 md:w-8 h-5 md:h-8"
  viewBox="0 0 18 16"
  xmlns="http://www.w3.org/2000/svg"
><path
    d="M16.5912 5.47255L8.50285 15.5778L0.414551 5.47255L4.76979 0.419922H12.2359L16.5912 5.47255Z"
    fill="#38ACFF"
  /><path
    fill-rule="evenodd"
    clip-rule="evenodd"
    d="M8.50309 16C8.37818 16 8.25993 15.9429 8.18117 15.8445L0.0928648 5.7392C-0.0345511 5.58001 -0.030428 5.35078 0.102628 5.19642L4.45787 0.143788C4.53663 0.0524128 4.65042 0 4.77002 0H12.2362C12.3558 0 12.4695 0.0524128 12.5483 0.143788L16.9035 5.19642C17.0366 5.35078 17.0407 5.58001 16.9133 5.7392L8.82501 15.8445C8.74624 15.9429 8.62799 16 8.50309 16ZM4.77002 0.421053H12.2362L16.5914 5.47368L8.50309 15.5789L0.414785 5.47368L4.77002 0.421053Z"
    fill="#042360"
  /><path
    d="M12.2359 0.419922L16.5912 5.47255H0.414551L4.76979 0.419922H12.2359Z"
    fill="#63BDFF"
  /><path
    d="M16.5912 5.47255L8.50293 15.5778V0.419922H12.236L16.5912 5.47255Z"
    fill="#2D88F3"
  /><path
    d="M16.5912 5.47255H8.50293V0.419922H12.236L16.5912 5.47255Z"
    fill="#53A1FE"
  /><path
    d="M0.414627 5.47255L8.50293 15.5778L4.35508 5.47255L8.50293 0.419922H4.76987L0.414627 5.47255Z"
    fill="#46CAF3"
  /><path
    d="M4.97726 0.419922L0.414627 5.47255H4.35508L8.50293 0.419922H4.97726Z"
    fill="#68DBFF"
  /><path
    d="M0.414627 5.47255L8.50293 15.5778L1.86637 5.47255L6.22161 0.419922H4.76987L0.414627 5.47255Z"
    fill="#C1E9FF"
  /><path
    d="M4.76993 0.419922L0.414693 5.47255H1.86644L6.22168 0.419922H4.76993Z"
    fill="#D8F1FF"
  /><path
    d="M16.5912 5.47255L8.50293 15.5778L12.6508 5.47255L8.50293 0.419922H12.236L16.5912 5.47255Z"
    fill="#4E5CDE"
  /><path
    d="M12.236 0.419922L16.5912 5.47255H12.6508L8.50293 0.419922H12.236Z"
    fill="#6A78F5"
  /><path
    d="M16.5912 5.47255L8.50293 15.5778L15.1395 5.47255L10.7842 0.419922H12.236L16.5912 5.47255Z"
    fill="#2D88F3"
  /><path
    d="M12.2359 0.419922L16.5912 5.47255H15.1394L10.7842 0.419922H12.2359Z"
    fill="#52A1FE"
  /><path
    fill-rule="evenodd"
    clip-rule="evenodd"
    d="M4.07643 1.73503C4.16299 1.81118 4.17235 1.94414 4.09733 2.032L1.40123 5.1899C1.32621 5.27776 1.19523 5.28726 1.10868 5.21111C1.02212 5.13496 1.01277 5.002 1.08778 4.91414L3.78388 1.75624C3.8589 1.66838 3.98988 1.65888 4.07643 1.73503Z"
    fill="white"
  /><path
    fill-rule="evenodd"
    clip-rule="evenodd"
    d="M8.01686 1.73503C8.10342 1.81118 8.11278 1.94414 8.03776 2.032L5.34166 5.1899C5.26664 5.27776 5.13566 5.28726 5.04911 5.21111C4.96255 5.13496 4.9532 5.002 5.02821 4.91414L7.72431 1.75624C7.79933 1.66838 7.93031 1.65888 8.01686 1.73503Z"
    fill="#8FD0FF"
  /><path
    d="M10.3699 8.21053C10.3699 8.3268 10.277 8.42105 10.1625 8.42105C10.0479 8.42105 9.95508 8.3268 9.95508 8.21053C9.95508 8.09426 10.0479 8 10.1625 8C10.277 8 10.3699 8.09426 10.3699 8.21053Z"
    fill="#2478DC"
  /><path
    d="M10.9919 9.05037C10.9919 9.16664 10.8991 9.2609 10.7845 9.2609C10.67 9.2609 10.5771 9.16664 10.5771 9.05037C10.5771 8.9341 10.67 8.83984 10.7845 8.83984C10.8991 8.83984 10.9919 8.9341 10.9919 9.05037Z"
    fill="#2478DC"
  /><path
    d="M10.1623 10.1031C10.1623 10.2194 10.0695 10.3136 9.95495 10.3136C9.84041 10.3136 9.74756 10.2194 9.74756 10.1031C9.74756 9.98683 9.84041 9.89258 9.95495 9.89258C10.0695 9.89258 10.1623 9.98683 10.1623 10.1031Z"
    fill="#2478DC"
  /><path
    d="M9.54027 10.525C9.54027 10.6412 9.44742 10.7355 9.33288 10.7355C9.21834 10.7355 9.12549 10.6412 9.12549 10.525C9.12549 10.4087 9.21834 10.3145 9.33288 10.3145C9.44742 10.3145 9.54027 10.4087 9.54027 10.525Z"
    fill="#2478DC"
  /><path
    d="M9.54027 11.7887C9.54027 11.9049 9.44742 11.9992 9.33288 11.9992C9.21834 11.9992 9.12549 11.9049 9.12549 11.7887C9.12549 11.6724 9.21834 11.5781 9.33288 11.5781C9.44742 11.5781 9.54027 11.6724 9.54027 11.7887Z"
    fill="#2478DC"
  /><path
    d="M9.74779 7.57967C9.74779 7.69594 9.65494 7.79019 9.5404 7.79019C9.42586 7.79019 9.33301 7.69594 9.33301 7.57967C9.33301 7.4634 9.42586 7.36914 9.5404 7.36914C9.65494 7.36914 9.74779 7.4634 9.74779 7.57967Z"
    fill="#2478DC"
  /><path
    d="M11.407 7.15584C11.407 7.27211 11.3141 7.36637 11.1996 7.36637C11.085 7.36637 10.9922 7.27211 10.9922 7.15584C10.9922 7.03957 11.085 6.94531 11.1996 6.94531C11.3141 6.94531 11.407 7.03957 11.407 7.15584Z"
    fill="#2478DC"
  /><path
    d="M10.5773 7.05212C10.5773 7.22652 10.438 7.36791 10.2662 7.36791C10.0944 7.36791 9.95508 7.22652 9.95508 7.05212C9.95508 6.87771 10.0944 6.73633 10.2662 6.73633C10.438 6.73633 10.5773 6.87771 10.5773 7.05212Z"
    fill="#2478DC"
  /><path
    d="M10.1622 9.15563C10.1622 9.33004 10.0229 9.47142 9.85113 9.47142C9.67932 9.47142 9.54004 9.33004 9.54004 9.15563C9.54004 8.98123 9.67932 8.83984 9.85113 8.83984C10.0229 8.83984 10.1622 8.98123 10.1622 9.15563Z"
    fill="#2478DC"
  /></svg>
