<svg
  width="54"
  height="43"
  viewBox="0 0 54 43"
  fill="none"
  xmlns="http://www.w3.org/2000/svg"
>
<path
    d="M53.4184 5.15169C51.4221 6.01293 49.3109 6.58226 47.1505 6.84198C49.4298 5.48795 51.1377 3.35782 51.9577 0.846731C49.8159 2.11462 47.4713 3.00792 45.0258 3.48781C43.3913 1.72508 41.2146 0.551713 38.8371 0.151735C36.4597 -0.248243 34.016 0.147791 31.8893 1.27773C29.7626 2.40766 28.0732 4.20759 27.086 6.39521C26.0988 8.58283 25.8697 11.0344 26.4347 13.3654C22.1041 13.1476 17.868 12.0263 14.0016 10.0743C10.1352 8.1223 6.72495 5.38329 3.99246 2.03522C3.03405 3.69954 2.53045 5.58436 2.53172 7.50225C2.52832 9.28335 2.96786 11.0376 3.81121 12.6089C4.65455 14.1802 5.87553 15.5198 7.36543 16.5083C5.63373 16.4615 3.93904 15.9994 2.42549 15.1614V15.2934C2.43847 17.789 3.31785 20.2034 4.91488 22.1285C6.51192 24.0535 8.72858 25.3708 11.1899 25.8577C10.2424 26.1445 9.25874 26.2957 8.26843 26.3067C7.58292 26.2988 6.89911 26.237 6.2234 26.1219C6.92431 28.2686 8.28071 30.1446 10.1038 31.489C11.927 32.8333 14.1262 33.5791 16.3954 33.6225C12.5635 36.6208 7.83255 38.2572 2.95666 38.2708C2.0689 38.2737 1.18183 38.2208 0.300781 38.1124C5.27904 41.3087 11.0805 43.0055 17.0063 42.9984C21.0955 43.0406 25.1522 42.2721 28.9395 40.7378C32.7267 39.2035 36.1685 36.9341 39.0639 34.0622C41.9593 31.1904 44.2502 27.7736 45.8028 24.0114C47.3554 20.2492 48.1386 16.2171 48.1067 12.1505C48.1067 11.7016 48.1067 11.2262 48.1067 10.7508C50.1907 9.20525 51.9882 7.31057 53.4184 5.15169Z"
    fill="currentColor"
  />
</svg>
