<svg
  width="24"
  height="24"
  viewBox="0 0 24 24"
  fill="none"
  xmlns="http://www.w3.org/2000/svg"
  style="opacity: 0.9;"
><path
    d="M12 24C18.6274 24 24 18.6274 24 12C24 5.37258 18.6274 0 12 0C5.37258 0 0 5.37258 0 12C0 18.6274 5.37258 24 12 24Z"
    fill="#a7a7a7"
  /><path
    d="M18.9247 6.69751C17.5883 5.39181 15.7604 4.58706 13.7443 4.58706C9.65028 4.58706 6.33134 7.90581 6.33134 12C6.33134 16.0942 9.65028 19.4131 13.7443 19.4131C15.7602 19.4131 17.5883 18.6081 18.9247 17.3025C17.3308 19.381 14.8219 20.7211 12.0002 20.7211C7.1835 20.7211 3.27881 16.8167 3.27881 12C3.27881 7.1833 7.1835 3.27881 12.0002 3.27881C14.8219 3.27881 17.3308 4.61894 18.9247 6.69751Z"
    fill="currentColor"
  /><path
    d="M8.20459 16.2418C9.27378 17.2864 10.7361 17.9302 12.3489 17.9302C15.6244 17.9302 18.2795 15.2753 18.2795 11.9998C18.2795 8.72459 15.6244 6.06951 12.3489 6.06951C10.7361 6.06951 9.27378 6.71331 8.20459 7.75791C9.47979 6.09509 11.4869 5.02295 13.7444 5.02295C17.5977 5.02295 20.7213 8.14651 20.7213 11.9998C20.7213 15.8532 17.5977 18.9767 13.7444 18.9767C11.4869 18.9767 9.47979 17.9046 8.20459 16.2418Z"
    fill="currentColor"
  /><path
    fill-rule="evenodd"
    clip-rule="evenodd"
    d="M12.0002 6.76747C14.8902 6.76747 17.233 9.11028 17.233 12.0001C17.233 14.8901 14.8902 17.2329 12.0002 17.2329C9.11039 17.2329 6.76758 14.8901 6.76758 12.0001C6.76758 9.11028 9.11039 6.76747 12.0002 6.76747ZM12.0002 8.51174C13.9269 8.51174 15.4887 10.0736 15.4887 12.0001C15.4887 13.9268 13.9269 15.4886 12.0002 15.4886C10.0735 15.4886 8.51185 13.9268 8.51185 12.0001C8.51185 10.0736 10.0735 8.51174 12.0002 8.51174Z"
    fill="currentColor"
  /></svg>
